<svg width="54" height="54" viewBox="0 0 54 54" fill="none" xmlns="http://www.w3.org/2000/svg">
<path d="M47.025 4.5H6.975C6.31859 4.5 5.68906 4.76076 5.22491 5.22491C4.76076 5.68906 4.5 6.31859 4.5 6.975V47.025C4.5 47.35 4.56402 47.6719 4.6884 47.9721C4.81278 48.2724 4.99509 48.5453 5.22491 48.7751C5.45474 49.0049 5.72758 49.1872 6.02786 49.3116C6.32814 49.436 6.64998 49.5 6.975 49.5H28.53V32.0625H22.68V25.3125H28.53V20.25C28.4088 19.0615 28.5491 17.8608 28.9411 16.7322C29.3331 15.6036 29.9672 14.5745 30.799 13.7169C31.6309 12.8594 32.6402 12.1942 33.7564 11.768C34.8725 11.3419 36.0683 11.1651 37.26 11.25C39.0112 11.2392 40.7616 11.3294 42.5025 11.52V17.595H38.925C36.09 17.595 35.55 18.945 35.55 20.9025V25.245H42.3L41.4225 31.995H35.55V49.5H47.025C47.35 49.5 47.6719 49.436 47.9721 49.3116C48.2724 49.1872 48.5453 49.0049 48.7751 48.7751C49.0049 48.5453 49.1872 48.2724 49.3116 47.9721C49.436 47.6719 49.5 47.35 49.5 47.025V6.975C49.5 6.64998 49.436 6.32814 49.3116 6.02786C49.1872 5.72758 49.0049 5.45474 48.7751 5.22491C48.5453 4.99509 48.2724 4.81278 47.9721 4.6884C47.6719 4.56402 47.35 4.5 47.025 4.5Z" fill="#595BD4"/>
</svg>
