<svg width="20" height="20" viewBox="0 0 20 20" fill="none" xmlns="http://www.w3.org/2000/svg">
<g clip-path="url(#clip0_88_275)">
<path d="M20 8.10314V15.8331C19.9987 16.9378 19.5593 17.9968 18.7782 18.778C17.997 19.5591 16.938 19.9985 15.8333 19.9998H15C14.779 19.9998 14.567 19.912 14.4107 19.7557C14.2545 19.5994 14.1667 19.3875 14.1667 19.1665C14.1667 18.9455 14.2545 18.7335 14.4107 18.5772C14.567 18.4209 14.779 18.3331 15 18.3331H15.8333C16.4964 18.3331 17.1323 18.0697 17.6011 17.6009C18.0699 17.1321 18.3333 16.4962 18.3333 15.8331V8.10314C18.3334 7.6939 18.2329 7.29092 18.0408 6.92957C17.8488 6.56821 17.5709 6.25954 17.2317 6.03064L11.3983 2.0948C10.9861 1.81381 10.4989 1.66352 10 1.66352C9.50115 1.66352 9.01386 1.81381 8.60167 2.0948L2.76834 6.03064C2.4291 6.25954 2.15125 6.56821 1.95917 6.92957C1.76709 7.29092 1.66665 7.6939 1.66667 8.10314V15.8331C1.66667 16.4962 1.93006 17.1321 2.3989 17.6009C2.86774 18.0697 3.50363 18.3331 4.16667 18.3331H5C5.22102 18.3331 5.43298 18.4209 5.58926 18.5772C5.74554 18.7335 5.83334 18.9455 5.83334 19.1665C5.83334 19.3875 5.74554 19.5994 5.58926 19.7557C5.43298 19.912 5.22102 19.9998 5 19.9998H4.16667C3.06201 19.9985 2.00297 19.5591 1.22185 18.778C0.440738 17.9968 0.00132648 16.9378 3.26423e-06 15.8331V8.10314C-0.000850798 7.42124 0.165902 6.74958 0.48559 6.14726C0.805278 5.54493 1.2681 5.03042 1.83334 4.64897L7.66667 0.712304C8.35439 0.245599 9.16638 -0.00390625 9.9975 -0.00390625C10.8286 -0.00390625 11.6406 0.245599 12.3283 0.712304L18.1617 4.64897C18.7275 5.03022 19.191 5.54457 19.5115 6.14684C19.8321 6.74911 19.9998 7.42088 20 8.10314ZM15.8333 12.5056C15.8355 13.2719 15.6856 14.031 15.3923 14.7389C15.0991 15.4468 14.6683 16.0895 14.125 16.6298L11.1958 19.4948C10.8752 19.8053 10.4463 19.9789 10 19.9789C9.55367 19.9789 9.12483 19.8053 8.80417 19.4948L5.88167 16.6365C5.202 15.9589 4.69999 15.1242 4.42016 14.2062C4.14032 13.2882 4.0913 12.3153 4.27744 11.3738C4.46358 10.4323 4.87914 9.55134 5.48726 8.8089C6.09538 8.06646 6.87728 7.48553 7.76366 7.11761C8.65003 6.74968 9.61349 6.60613 10.5686 6.69968C11.5237 6.79323 12.441 7.12099 13.2392 7.6539C14.0373 8.18681 14.6917 8.90841 15.1442 9.75473C15.5967 10.601 15.8334 11.5459 15.8333 12.5056ZM14.1667 12.5056C14.1667 11.8204 13.9977 11.1458 13.6747 10.5415C13.3518 9.93724 12.8847 9.42192 12.315 9.04123C11.7453 8.66053 11.0905 8.4262 10.4086 8.359C9.72676 8.2918 9.03882 8.3938 8.40577 8.65597C7.77272 8.91813 7.21409 9.33237 6.77936 9.862C6.34463 10.3916 6.04722 11.0203 5.91348 11.6923C5.77974 12.3643 5.81379 13.0589 6.01261 13.7146C6.21143 14.3703 6.5689 14.9669 7.05334 15.4515L9.97 18.3031L12.9533 15.4448C13.3397 15.0593 13.6458 14.6011 13.8541 14.0966C14.0623 13.5921 14.1686 13.0514 14.1667 12.5056ZM12.5 12.4998C12.5 12.9943 12.3534 13.4776 12.0787 13.8887C11.804 14.2999 11.4135 14.6203 10.9567 14.8095C10.4999 14.9987 9.99723 15.0482 9.51228 14.9518C9.02733 14.8553 8.58187 14.6172 8.23224 14.2676C7.88261 13.9179 7.6445 13.4725 7.54804 12.9875C7.45158 12.5026 7.50109 11.9999 7.6903 11.5431C7.87952 11.0863 8.19995 10.6958 8.61108 10.4211C9.0222 10.1464 9.50555 9.99981 10 9.99981C10.663 9.99981 11.2989 10.2632 11.7678 10.732C12.2366 11.2009 12.5 11.8368 12.5 12.4998Z" fill="url(#paint0_linear_88_275)" fill-opacity="0.8"/>
</g>
<defs>
<linearGradient id="paint0_linear_88_275" x1="0" y1="9.99795" x2="20" y2="9.99795" gradientUnits="userSpaceOnUse">
<stop stop-color="#FB7209"/>
<stop offset="0.5" stop-color="#FFE600" stop-opacity="0.9"/>
<stop offset="1" stop-color="#FB7209"/>
</linearGradient>
<clipPath id="clip0_88_275">
<rect width="20" height="20" fill="white"/>
</clipPath>
</defs>
</svg>
