<svg width="54" height="54" viewBox="0 0 54 54" fill="none" xmlns="http://www.w3.org/2000/svg">
<path d="M37.35 31.5001C36.9 31.2751 33.975 29.9251 33.525 29.7001C33.075 29.4751 32.625 29.4751 32.175 29.9251C31.725 30.3751 30.825 31.7251 30.375 32.1751C30.15 32.6251 29.7 32.6251 29.25 32.4001C27.675 31.7251 26.1 30.8251 24.75 29.7001C23.625 28.5751 22.5 27.2251 21.6 25.8751C21.375 25.4251 21.6 24.9751 21.825 24.7501C22.05 24.5251 22.275 24.0751 22.725 23.8501C22.95 23.6251 23.175 23.1751 23.175 22.9501C23.4 22.7251 23.4 22.2751 23.175 22.0501C22.95 21.8251 21.825 19.1251 21.375 18.0001C21.15 16.4251 20.7 16.4251 20.25 16.4251H19.125C18.675 16.4251 18 16.8751 17.775 17.1001C16.425 18.4501 15.75 20.0251 15.75 21.8251C15.975 23.8501 16.65 25.8751 18 27.6751C20.475 31.2751 23.625 34.2001 27.45 36.0001C28.575 36.4501 29.475 36.9001 30.6 37.1251C31.725 37.5751 32.85 37.5751 34.2 37.3501C35.775 37.1251 37.125 36.0001 38.025 34.6501C38.475 33.7501 38.475 32.8501 38.25 31.9501L37.35 31.5001ZM42.975 11.0251C34.2 2.2501 20.025 2.2501 11.25 11.0251C4.05 18.2251 2.7 29.2501 7.65 38.0251L4.5 49.5001L16.425 46.3501C19.8 48.1501 23.4 49.0501 27 49.0501C39.375 49.0501 49.275 39.1501 49.275 26.7751C49.5 20.9251 47.025 15.3001 42.975 11.0251ZM36.9 42.5251C33.975 44.3251 30.6 45.4501 27 45.4501C23.625 45.4501 20.475 44.5501 17.55 42.9751L16.875 42.5251L9.9 44.3251L11.7 37.5751L11.25 36.9001C5.85 27.9001 8.55 16.6501 17.325 11.0251C26.1 5.4001 37.35 8.3251 42.75 16.8751C48.15 25.6501 45.675 37.1251 36.9 42.5251Z" fill="#34A853"/>
</svg>
